<?xml version="1.0" standalone="no"?>
<!DOCTYPE svg PUBLIC "-//W3C//DTD SVG 20010904//EN"
 "http://www.w3.org/TR/2001/REC-SVG-20010904/DTD/svg10.dtd">
<svg version="1.0" xmlns="http://www.w3.org/2000/svg"
 width="512.000000pt" height="512.000000pt" viewBox="0 0 512.000000 512.000000"
 preserveAspectRatio="xMidYMid meet">

<g transform="translate(0.000000,512.000000) scale(0.100000,-0.100000)"
fill="#000000" stroke="none">
<path d="M708 4643 c-44 -27 -48 -51 -48 -263 0 -196 0 -199 24 -227 l24 -28
362 -3 361 -3 30 31 31 30 871 0 871 0 151 -150 151 -150 148 0 148 0 -31 -30
c-49 -49 -53 -129 -10 -184 10 -13 39 -32 63 -41 56 -22 76 -16 256 78 155 80
177 97 186 144 5 28 10 33 35 33 15 0 40 5 54 12 47 21 55 53 55 217 0 82 -3
157 -6 166 -12 29 -60 45 -139 45 l-75 0 0 71 c0 65 -2 73 -29 100 l-29 29
-132 0 c-194 0 -230 -21 -230 -137 0 -36 -4 -63 -10 -63 -6 0 -86 77 -178 170
l-167 170 -1355 0 c-1244 0 -1357 -2 -1382 -17z"/>
<path d="M240 2860 l0 -1100 1540 0 1540 0 0 1100 0 1100 -1540 0 -1540 0 0
-1100z m2920 0 l0 -940 -1380 0 -1380 0 0 940 0 940 1380 0 1380 0 0 -940z"/>
<path d="M1590 3697 c-13 -7 -35 -28 -47 -46 -29 -43 -30 -98 -3 -210 11 -46
19 -85 17 -87 -2 -2 -27 28 -57 66 -29 39 -68 84 -86 100 -70 61 -162 47 -185
-30 -17 -55 0 -105 59 -177 26 -32 53 -66 61 -76 9 -12 -19 -2 -79 28 -100 48
-131 53 -185 31 -47 -20 -69 -57 -61 -101 11 -54 60 -102 150 -145 l81 -39
-80 6 c-103 7 -154 -7 -194 -52 -37 -42 -40 -81 -9 -120 36 -46 91 -64 193
-65 l90 -1 -77 -33 c-42 -19 -87 -41 -99 -49 -51 -36 -74 -110 -49 -158 6 -10
24 -26 40 -34 48 -25 108 -19 189 20 40 19 75 35 78 35 3 0 -17 -26 -44 -58
-75 -87 -83 -102 -83 -155 0 -41 5 -53 30 -79 28 -27 36 -30 75 -25 60 6 83
23 162 117 37 43 68 78 70 77 1 -2 -9 -41 -23 -87 -31 -102 -33 -164 -10 -208
22 -43 74 -66 113 -51 60 22 92 69 113 159 6 30 17 73 22 95 l10 40 22 -105
c12 -58 27 -114 33 -125 35 -63 111 -92 159 -60 56 36 66 109 34 244 -11 46
-19 86 -16 88 2 2 34 -35 71 -83 71 -90 106 -114 167 -114 44 0 74 22 88 64
18 55 -3 110 -72 194 -32 39 -57 72 -53 72 3 0 41 -18 85 -40 89 -45 152 -52
201 -23 44 26 55 64 35 117 -21 55 -38 70 -133 117 l-78 38 93 0 c108 1 154
17 183 65 23 38 24 58 4 96 -25 48 -67 64 -185 70 l-105 5 45 20 c147 63 190
103 190 176 0 29 -6 43 -30 62 -58 49 -111 47 -222 -9 -38 -19 -68 -31 -68
-28 0 3 21 29 46 58 69 75 84 104 84 159 0 66 -30 97 -95 97 -66 0 -95 -19
-176 -117 -39 -48 -69 -79 -66 -68 50 164 58 235 32 285 -31 60 -85 75 -141
41 -46 -28 -69 -74 -94 -186 l-23 -100 -23 112 c-12 61 -30 123 -39 137 -32
49 -94 73 -135 53z m317 -489 c69 -25 147 -99 183 -173 20 -42 25 -65 25 -140
0 -77 -4 -98 -26 -145 -33 -69 -97 -133 -169 -168 -47 -23 -68 -27 -140 -27
-70 0 -95 5 -140 26 -72 34 -135 97 -168 167 -23 49 -27 71 -27 147 0 78 4 97
28 147 34 70 110 140 180 167 72 28 179 28 254 -1z"/>
<path d="M3969 3545 c-184 -93 -221 -132 -205 -220 14 -71 90 -124 159 -111
18 4 99 41 182 84 166 85 195 113 195 184 0 82 -58 138 -140 137 -36 0 -76
-16 -191 -74z"/>
<path d="M3965 3137 c-97 -50 -167 -92 -178 -108 -29 -40 -32 -107 -8 -147 27
-41 77 -72 120 -72 33 0 315 134 355 169 69 61 56 185 -24 226 -56 29 -95 19
-265 -68z"/>
<path d="M3968 2738 c-173 -88 -196 -108 -205 -175 -11 -82 52 -153 136 -153
52 0 321 132 366 180 26 27 30 39 30 90 0 63 -20 96 -77 126 -49 26 -83 16
-250 -68z"/>
<path d="M4105 2402 c-135 -59 -303 -153 -320 -178 -60 -92 4 -214 113 -216
59 -1 353 150 381 196 72 116 -49 253 -174 198z"/>
<path d="M4030 1955 l-112 -56 -187 2 -186 1 -157 -161 -157 -161 -875 0
c-862 0 -875 0 -881 20 -3 11 -18 29 -32 40 -25 19 -39 20 -374 20 l-347 0
-31 -26 -31 -26 0 -199 c0 -159 3 -206 15 -229 33 -64 -57 -60 1402 -60 833 0
1341 4 1363 10 25 7 76 51 185 160 82 82 155 150 162 150 10 0 13 -51 13 -229
l0 -229 -30 -30 c-28 -29 -30 -35 -30 -111 l0 -81 -39 0 c-36 0 -40 3 -51 35
-14 44 -83 114 -135 140 -26 13 -60 19 -100 19 -226 -1 -329 -284 -159 -434
51 -45 99 -63 165 -63 74 0 138 31 192 94 38 44 46 49 85 49 l42 0 0 -45 c0
-35 6 -52 29 -77 l29 -33 199 -3 c109 -2 213 0 231 3 42 8 72 54 72 113 l0 42
43 0 c38 0 46 -5 84 -49 55 -63 116 -93 191 -93 69 0 125 21 170 65 56 53 76
102 76 182 0 52 -5 80 -21 110 -25 48 -75 96 -123 121 -49 24 -143 24 -195 -1
-52 -26 -121 -96 -135 -140 -11 -32 -15 -35 -51 -35 l-39 0 0 74 c0 66 -3 78
-26 105 -14 17 -32 31 -40 31 -12 0 -14 39 -14 235 l0 235 73 0 c131 0 147 27
147 245 l0 157 -29 29 c-23 23 -38 29 -70 29 -34 0 -43 4 -50 23 -17 43 -82
87 -130 87 -10 0 -69 -25 -131 -55z"/>
</g>
</svg>
